<?xml version="1.0" encoding="utf-8"?>
<!-- Generator: Adobe Illustrator 15.1.0, SVG Export Plug-In . SVG Version: 6.00 Build 0)  -->
<!DOCTYPE svg PUBLIC "-//W3C//DTD SVG 1.1//EN" "http://www.w3.org/Graphics/SVG/1.1/DTD/svg11.dtd">
<svg version="1.1" id="レイヤー_1" xmlns="http://www.w3.org/2000/svg" xmlns:xlink="http://www.w3.org/1999/xlink" x="0px"
	 y="0px" width="256px" height="256px" viewBox="0 0 256 256" enable-background="new 0 0 256 256" xml:space="preserve">
<g>
	<path fill="#C8C8C8" d="M241.827,14.173v227.654H14.173V14.173H241.827 M256,0H0v256h256V0L256,0z"/>
</g>
<path fill="#C8C8C8" d="M128,215.841c-48.436,0-87.841-39.405-87.841-87.841c0-48.436,39.405-87.841,87.841-87.841
	c48.436,0,87.841,39.405,87.841,87.841C215.841,176.436,176.436,215.841,128,215.841z M128,68.505
	c-32.806,0-59.495,26.689-59.495,59.495c0,32.807,26.689,59.495,59.495,59.495c32.807,0,59.495-26.688,59.495-59.495
	C187.495,95.194,160.807,68.505,128,68.505z"/>
</svg>
