<?xml version="1.0" encoding="utf-8"?>
<!-- Generator: Adobe Illustrator 15.1.0, SVG Export Plug-In . SVG Version: 6.00 Build 0)  -->
<!DOCTYPE svg PUBLIC "-//W3C//DTD SVG 1.1//EN" "http://www.w3.org/Graphics/SVG/1.1/DTD/svg11.dtd">
<svg version="1.1" id="レイヤー_1" xmlns="http://www.w3.org/2000/svg" xmlns:xlink="http://www.w3.org/1999/xlink" x="0px"
	 y="0px" width="256px" height="256px" viewBox="0 0 256 256" enable-background="new 0 0 256 256" xml:space="preserve">
<g>
	<path fill="#C8C8C8" d="M241.827,14.173v227.654H14.173V14.173H241.827 M256,0H0v256h256V0L256,0z"/>
</g>
<path fill="#C8C8C8" d="M225.512,138.912L121.094,34.494c-0.001-0.001-0.003-0.003-0.004-0.005c-0.075-0.075-0.156-0.14-0.233-0.21
	c-0.096-0.088-0.19-0.18-0.291-0.263c-0.146-0.12-0.298-0.228-0.451-0.333c-0.037-0.026-0.072-0.056-0.109-0.081
	c-0.175-0.117-0.355-0.222-0.538-0.322c-0.019-0.01-0.037-0.023-0.056-0.033c-0.184-0.098-0.372-0.185-0.563-0.266
	c-0.022-0.009-0.042-0.021-0.064-0.03c-0.179-0.074-0.361-0.136-0.544-0.195c-0.037-0.012-0.073-0.027-0.111-0.039
	c-0.164-0.049-0.33-0.087-0.497-0.125c-0.06-0.014-0.119-0.032-0.18-0.044c-0.153-0.03-0.308-0.049-0.462-0.069
	c-0.075-0.01-0.149-0.025-0.224-0.032c-0.183-0.018-0.366-0.024-0.55-0.027c-0.047-0.001-0.093-0.007-0.14-0.007H38
	c-3.914,0-7.086,3.172-7.086,7.086v78.076c0,0.232,0.012,0.464,0.034,0.696c0.005,0.047,0.015,0.093,0.02,0.139
	c0.022,0.184,0.046,0.367,0.082,0.548c0.008,0.039,0.02,0.077,0.028,0.116c0.041,0.188,0.085,0.374,0.141,0.559
	c0.007,0.023,0.017,0.046,0.024,0.07c0.062,0.197,0.13,0.392,0.209,0.584c0.004,0.01,0.01,0.02,0.014,0.03
	c0.084,0.202,0.177,0.401,0.282,0.596c0.003,0.006,0.007,0.012,0.01,0.018c0.105,0.196,0.219,0.388,0.344,0.576
	c0.016,0.023,0.034,0.044,0.049,0.067c0.115,0.167,0.234,0.333,0.364,0.492c0.075,0.091,0.159,0.176,0.238,0.263
	c0.079,0.086,0.151,0.176,0.235,0.26c0.001,0.001,0.003,0.003,0.005,0.004L137.411,227.01c1.384,1.385,3.196,2.076,5.011,2.076
	s3.627-0.691,5.012-2.076l78.076-78.076C228.277,146.166,228.277,141.68,225.512,138.912z M98.97,46.586L45.086,100.47V46.586H98.97
	z M142.423,211.979l-94.401-94.399l68.056-68.056l94.4,94.401L142.423,211.979z"/>
</svg>
